<?xml version="1.0" standalone="no"?>
<svg xmlns:xlink="http://www.w3.org/1999/xlink" id="wave" style="transform:rotate(0deg); transition: 0.3s" viewBox="0 0 1440 490" version="1.1" xmlns="http://www.w3.org/2000/svg"><defs><linearGradient id="sw-gradient-0" x1="0" x2="0" y1="1" y2="0"><stop stop-color="rgba(0, 0, 0, 1)" offset="0%"/><stop stop-color="rgba(11, 131.02, 255, 1)" offset="100%"/></linearGradient></defs><path style="transform:translate(0, 0px); opacity:1" fill="url(#sw-gradient-0)" d="M0,343L14.1,359.3C28.2,376,56,408,85,375.7C112.9,343,141,245,169,220.5C197.6,196,226,245,254,236.8C282.4,229,311,163,339,163.3C367.1,163,395,229,424,236.8C451.8,245,480,196,508,171.5C536.5,147,565,147,593,147C621.2,147,649,147,678,187.8C705.9,229,734,310,762,326.7C790.6,343,819,294,847,236.8C875.3,180,904,114,932,122.5C960,131,988,212,1016,228.7C1044.7,245,1073,196,1101,187.8C1129.4,180,1158,212,1186,187.8C1214.1,163,1242,82,1271,98C1298.8,114,1327,229,1355,228.7C1383.5,229,1412,114,1440,81.7C1468.2,49,1496,98,1525,130.7C1552.9,163,1581,180,1609,155.2C1637.6,131,1666,65,1694,40.8C1722.4,16,1751,33,1779,106.2C1807.1,180,1835,310,1864,310.3C1891.8,310,1920,180,1948,114.3C1976.5,49,2005,49,2019,49L2032.9,49L2032.9,490L2018.8,490C2004.7,490,1976,490,1948,490C1920,490,1892,490,1864,490C1835.3,490,1807,490,1779,490C1750.6,490,1722,490,1694,490C1665.9,490,1638,490,1609,490C1581.2,490,1553,490,1525,490C1496.5,490,1468,490,1440,490C1411.8,490,1384,490,1355,490C1327.1,490,1299,490,1271,490C1242.4,490,1214,490,1186,490C1157.6,490,1129,490,1101,490C1072.9,490,1045,490,1016,490C988.2,490,960,490,932,490C903.5,490,875,490,847,490C818.8,490,791,490,762,490C734.1,490,706,490,678,490C649.4,490,621,490,593,490C564.7,490,536,490,508,490C480,490,452,490,424,490C395.3,490,367,490,339,490C310.6,490,282,490,254,490C225.9,490,198,490,169,490C141.2,490,113,490,85,490C56.5,490,28,490,14,490L0,490Z"/></svg>