<?xml version="1.0" standalone="no"?>
<svg xmlns:xlink="http://www.w3.org/1999/xlink" id="wave" style="transform:rotate(180deg); transition: 0.3s" viewBox="0 0 1440 490" version="1.1" xmlns="http://www.w3.org/2000/svg"><defs><linearGradient id="sw-gradient-0" x1="0" x2="0" y1="1" y2="0"><stop stop-color="rgba(0, 0, 0, 1)" offset="0%"/><stop stop-color="rgba(11, 131.02, 255, 1)" offset="100%"/></linearGradient></defs><path style="transform:translate(0, 0px); opacity:1" fill="url(#sw-gradient-0)" d="M0,343L16,359.3C32,376,64,408,96,375.7C128,343,160,245,192,220.5C224,196,256,245,288,236.8C320,229,352,163,384,163.3C416,163,448,229,480,236.8C512,245,544,196,576,171.5C608,147,640,147,672,147C704,147,736,147,768,187.8C800,229,832,310,864,326.7C896,343,928,294,960,236.8C992,180,1024,114,1056,122.5C1088,131,1120,212,1152,228.7C1184,245,1216,196,1248,187.8C1280,180,1312,212,1344,187.8C1376,163,1408,82,1440,98C1472,114,1504,229,1536,228.7C1568,229,1600,114,1632,81.7C1664,49,1696,98,1728,130.7C1760,163,1792,180,1824,155.2C1856,131,1888,65,1920,40.8C1952,16,1984,33,2016,106.2C2048,180,2080,310,2112,310.3C2144,310,2176,180,2208,114.3C2240,49,2272,49,2288,49L2304,49L2304,490L2288,490C2272,490,2240,490,2208,490C2176,490,2144,490,2112,490C2080,490,2048,490,2016,490C1984,490,1952,490,1920,490C1888,490,1856,490,1824,490C1792,490,1760,490,1728,490C1696,490,1664,490,1632,490C1600,490,1568,490,1536,490C1504,490,1472,490,1440,490C1408,490,1376,490,1344,490C1312,490,1280,490,1248,490C1216,490,1184,490,1152,490C1120,490,1088,490,1056,490C1024,490,992,490,960,490C928,490,896,490,864,490C832,490,800,490,768,490C736,490,704,490,672,490C640,490,608,490,576,490C544,490,512,490,480,490C448,490,416,490,384,490C352,490,320,490,288,490C256,490,224,490,192,490C160,490,128,490,96,490C64,490,32,490,16,490L0,490Z"/></svg>